<svg width="127" height="58" viewBox="0 0 127 58" fill="none" xmlns="http://www.w3.org/2000/svg">
<path fill-rule="evenodd" clip-rule="evenodd" d="M75.262 43.2589C76.1716 43.2589 77.0243 43.4066 77.8202 43.702C78.6161 43.9975 79.3146 44.4319 79.9156 45.0054C80.5166 45.5789 80.9876 46.2914 81.3287 47.1429C81.6562 47.9604 81.8265 48.906 81.8396 49.9797L81.8404 50.1146V50.636L81.8396 50.7771C81.8265 51.9005 81.6562 52.8918 81.3287 53.751C80.9876 54.646 80.5166 55.3889 79.9156 55.9798C79.3146 56.5706 78.6161 57.0138 77.8202 57.3092C77.0243 57.6046 76.1716 57.7524 75.262 57.7524C74.3524 57.7524 73.4996 57.609 72.7037 57.3223C71.9078 57.0355 71.2093 56.5967 70.6083 56.0058C70.0074 55.415 69.5363 54.6721 69.1952 53.7771C68.8672 52.9165 68.6969 51.9154 68.6843 50.7736L68.6835 50.636V50.1146L68.6844 49.9797C68.6975 48.906 68.8677 47.9604 69.1952 47.1429C69.5363 46.2914 70.0074 45.5789 70.6083 45.0054C71.2093 44.4319 71.9078 43.9975 72.7037 43.702C73.4996 43.4066 74.3524 43.2589 75.262 43.2589ZM60.0585 39.1663V57.4135H56.5988V55.5366L56.5554 55.6089C56.2298 56.1368 55.7407 56.6211 55.0882 57.0616C54.4059 57.5221 53.5694 57.7524 52.5786 57.7524C51.734 57.7524 50.9706 57.6003 50.2883 57.2962C49.6061 56.9921 49.0214 56.5446 48.5341 55.9537C48.0468 55.3629 47.6732 54.6199 47.4133 53.7249C47.1647 52.8689 47.035 51.8896 47.0242 50.7871L47.0235 50.636V50.1146L47.0243 49.9638C47.0348 48.9134 47.1564 47.9818 47.389 47.169C47.6326 46.3175 47.994 45.6006 48.4732 45.0184C48.9524 44.4363 49.5371 43.9975 50.2274 43.702C50.9178 43.4066 51.7015 43.2589 52.5786 43.2589C53.3095 43.2589 54.0039 43.437 54.6618 43.7933C55.291 44.134 55.8199 44.6219 56.2486 45.2568L56.3064 45.3443V39.1663H60.0585ZM36.6442 43.5978V51.6526L36.6448 51.7453C36.6565 52.6033 36.8309 53.2589 37.1681 53.7119C37.5173 54.1811 38.0817 54.4157 38.8614 54.4157C39.2837 54.4157 39.6492 54.3462 39.9578 54.2072C40.2664 54.0682 40.5222 53.8727 40.7253 53.6207C40.9283 53.3687 41.0786 53.0733 41.176 52.7344C41.2646 52.4263 41.3129 52.1003 41.321 51.7563L41.3222 51.6526V43.5978H45.0743V57.4135H41.6146V55.5366L41.573 55.6122C41.2471 56.1882 40.7534 56.6843 40.0918 57.1007C39.4015 57.5351 38.5203 57.7524 37.4482 57.7524C35.9701 57.7524 34.8412 57.3005 34.0616 56.3969C33.2982 55.512 32.9085 54.1773 32.8926 52.3927L32.8921 52.2782V43.5978H36.6442ZM15.2278 43.2589C16.2349 43.2589 17.0836 43.3892 17.7739 43.6499C18.4642 43.9106 19.0287 44.2538 19.4672 44.6796C19.9058 45.1053 20.2307 45.5876 20.4418 46.1263C20.6379 46.6265 20.7639 47.1343 20.82 47.6495L20.8317 47.7685H17.0795L17.0632 47.698C16.9595 47.2799 16.7538 46.9515 16.446 46.7128C16.1212 46.4608 15.7151 46.3348 15.2278 46.3348C14.4806 46.3348 13.9649 46.4565 13.6807 46.6998C13.3964 46.9431 13.2543 47.2298 13.2543 47.56C13.2543 47.9249 13.4817 48.2073 13.9365 48.4072C14.3913 48.607 15.1141 48.7765 16.1049 48.9155C16.8196 49.0198 17.4897 49.1675 18.115 49.3587C18.7404 49.5498 19.2926 49.8148 19.7718 50.1537C20.251 50.4926 20.6286 50.9184 20.9047 51.431C21.1809 51.9437 21.3189 52.5649 21.3189 53.2948C21.3189 53.9552 21.189 54.5591 20.9291 55.1065C20.6692 55.6539 20.2835 56.1231 19.7718 56.5142C19.2601 56.9052 18.6267 57.2093 17.8714 57.4265C17.1161 57.6437 16.2349 57.7524 15.2278 57.7524C14.172 57.7524 13.2665 57.6351 12.5112 57.4005C11.7559 57.1658 11.1346 56.8443 10.6473 56.436C10.16 56.0276 9.79453 55.5497 9.55089 55.0023C9.32247 54.489 9.18685 53.9415 9.14402 53.3595L9.13669 53.2427H12.8888L12.9072 53.3126C13.011 53.6821 13.212 53.9976 13.5101 54.2593C13.8269 54.5374 14.3994 54.6764 15.2278 54.6764C16.0562 54.6764 16.6531 54.5548 17.0186 54.3115C17.3841 54.0682 17.5668 53.7467 17.5668 53.347C17.5668 53.1906 17.5262 53.0472 17.445 52.9169C17.3638 52.7865 17.2135 52.6649 16.9942 52.5519C16.775 52.439 16.4785 52.3303 16.1049 52.2261C15.7314 52.1218 15.2522 52.0175 14.6674 51.9133C13.9527 51.7916 13.2787 51.6352 12.6452 51.444C12.0117 51.2529 11.4635 50.9966 11.0006 50.6751C10.5376 50.3536 10.1722 49.9408 9.90417 49.4369C9.63616 48.9329 9.50216 48.2986 9.50216 47.5339C9.50216 46.9257 9.6321 46.3609 9.89199 45.8396C10.1519 45.3182 10.5295 44.8664 11.0249 44.484C11.5204 44.1017 12.1213 43.8019 12.8279 43.5847C13.5345 43.3675 14.3345 43.2589 15.2278 43.2589ZM27.873 40.4697V43.5978H30.8211V46.8823H27.873V52.0697L27.8736 52.1726C27.8776 52.5116 27.9018 52.8075 27.9461 53.0602C27.9948 53.3383 28.0882 53.5642 28.2263 53.738C28.3643 53.9118 28.543 54.0378 28.7623 54.116C28.9816 54.1942 29.2618 54.2333 29.6029 54.2333C29.8465 54.2333 30.0902 54.2289 30.3338 54.2202C30.5287 54.2133 30.7236 54.198 30.9186 54.1743L31.0647 54.1551V57.4396L30.9091 57.4566C30.6474 57.4843 30.3744 57.5091 30.0902 57.5308C29.7491 57.5569 29.3024 57.5699 28.7501 57.5699C27.938 57.5699 27.2395 57.4873 26.6548 57.3223C26.07 57.1572 25.5909 56.8834 25.2173 56.5011C24.8437 56.1188 24.5675 55.6192 24.3889 55.0023C24.2187 54.4147 24.1296 53.6971 24.1215 52.8495L24.1209 52.7214V46.8823H22.5372V43.5978H24.1209V40.4697H27.873ZM66.4907 43.5978V57.4135H62.7386V43.5978H66.4907ZM53.4801 46.5694C53.0903 46.5694 52.737 46.6433 52.4202 46.791C52.1035 46.9387 51.8274 47.156 51.5918 47.4427C51.3563 47.7294 51.1777 48.0944 51.0558 48.5375C50.9421 48.9511 50.8815 49.4366 50.8739 49.9941L50.8731 50.1146V50.636L50.874 50.7601C50.882 51.3348 50.9467 51.8452 51.068 52.2912C51.198 52.7691 51.3807 53.1645 51.6162 53.4773C51.8517 53.7901 52.1279 54.0291 52.4446 54.1942C52.7613 54.3593 53.1065 54.4418 53.4801 54.4418C53.8699 54.4418 54.2395 54.3679 54.5887 54.2202C54.9379 54.0725 55.2384 53.8509 55.4902 53.5555C55.7419 53.2601 55.9409 52.8995 56.0871 52.4737C56.2235 52.0763 56.2963 51.6297 56.3054 51.134L56.3064 51.027V49.7236L56.3054 49.6202C56.2963 49.1417 56.2235 48.72 56.0871 48.3551C55.9409 47.9641 55.7419 47.6339 55.4902 47.3645C55.2384 47.0951 54.9379 46.8953 54.5887 46.7649C54.2395 46.6346 53.8699 46.5694 53.4801 46.5694ZM75.262 46.5955C74.8234 46.5955 74.4336 46.6824 74.0925 46.8562C73.7514 47.03 73.4671 47.2689 73.2397 47.573C73.0123 47.8772 72.8377 48.2464 72.7159 48.6809C72.6034 49.0819 72.5429 49.52 72.5342 49.9951L72.5331 50.1146V50.636L72.5341 50.7616C72.5422 51.3022 72.6028 51.7904 72.7159 52.2261C72.8377 52.6953 73.0123 53.095 73.2397 53.4252C73.4671 53.7554 73.7514 54.003 74.0925 54.1681C74.4336 54.3332 74.8234 54.4157 75.262 54.4157C75.7005 54.4157 76.0904 54.3288 76.4315 54.1551C76.7726 53.9813 77.0568 53.7293 77.2842 53.3991C77.5116 53.0689 77.6862 52.6692 77.8081 52.2C77.9212 51.7643 77.9818 51.2837 77.9899 50.758L77.9908 50.636V50.1146L77.9897 49.9951C77.9811 49.52 77.9205 49.0819 77.8081 48.6809C77.6862 48.2464 77.5116 47.8772 77.2842 47.573C77.0568 47.2689 76.7726 47.03 76.4315 46.8562C76.0904 46.6824 75.7005 46.5955 75.262 46.5955ZM64.6147 38.1236C65.3131 38.1236 65.8532 38.3191 66.2349 38.7101C66.6166 39.1011 66.8075 39.6007 66.8075 40.209C66.8075 40.8172 66.6166 41.3169 66.2349 41.7079C65.8532 42.0989 65.3131 42.2944 64.6147 42.2944C63.9162 42.2944 63.3761 42.0989 62.9944 41.7079C62.6127 41.3169 62.4219 40.8172 62.4219 40.209C62.4219 39.6007 62.6127 39.1011 62.9944 38.7101C63.3761 38.3191 63.9162 38.1236 64.6147 38.1236ZM0 0L127 13.8939L123.826 23.1787L120.764 14.5456H116.623L122.055 28.3613L0 38.1236V0ZM15.6511 9.77528C14.5468 9.77528 13.5075 9.95341 12.5331 10.3097C11.5587 10.6659 10.7061 11.2133 9.9753 11.9519C9.2445 12.6905 8.66799 13.6289 8.24575 14.7672C7.83759 15.8675 7.6267 17.1749 7.6131 18.6893L7.61239 18.8467V19.3681L7.61308 19.5324C7.62643 21.1132 7.83326 22.4747 8.23357 23.6171C8.64769 24.7988 9.22014 25.7676 9.95094 26.5236C10.6817 27.2796 11.5424 27.8313 12.5331 28.1789C13.5237 28.5264 14.6037 28.7002 15.7729 28.7002C16.8935 28.7002 17.9207 28.5351 18.8545 28.2049C19.7883 27.8748 20.5962 27.3534 21.2783 26.6409C21.9603 25.9284 22.4922 25.016 22.8738 23.9038C23.2428 22.8287 23.4334 21.5424 23.4457 20.0451L23.4463 19.8894V18.6643H16.2601V21.636H19.3782L19.3743 21.7303C19.3482 22.2296 19.2359 22.6674 19.0372 23.0436C18.826 23.4433 18.554 23.7735 18.2211 24.0342C17.8882 24.2948 17.5066 24.486 17.0762 24.6076C16.6458 24.7293 16.2114 24.7901 15.7729 24.7901C15.237 24.7901 14.7458 24.6902 14.2992 24.4903C13.8526 24.2905 13.4709 23.9733 13.1543 23.5389C12.8376 23.1044 12.5899 22.544 12.4113 21.8575C12.2412 21.2038 12.152 20.42 12.1439 19.5061L12.1433 19.3681V18.8467L12.1439 18.715C12.1513 17.7996 12.2363 17.0268 12.3991 16.3964C12.5696 15.736 12.8092 15.206 13.1177 14.8063C13.4263 14.4066 13.7957 14.1199 14.2261 13.9461C14.6564 13.7723 15.1315 13.6854 15.6511 13.6854C15.9435 13.6854 16.2358 13.7202 16.5281 13.7897C16.8204 13.8592 17.0965 13.9852 17.3563 14.1676C17.6162 14.3501 17.8516 14.5978 18.0628 14.9106C18.2598 15.2025 18.4144 15.5702 18.5266 16.0135L18.55 16.1097H23.0809L23.0646 15.9769C22.9287 14.9212 22.658 14.0097 22.2527 13.2422C21.8304 12.4428 21.2904 11.7868 20.6327 11.2742C19.975 10.7615 19.2239 10.3835 18.3794 10.1402C17.535 9.89693 16.6255 9.77528 15.6511 9.77528ZM41.229 14.2067C40.3195 14.2067 39.467 14.3545 38.6712 14.6499C37.8754 14.9453 37.1771 15.3798 36.5763 15.9533C35.9754 16.5267 35.5044 17.2393 35.1634 18.0908C34.836 18.9083 34.6657 19.8539 34.6526 20.9276L34.6518 21.0625V21.5838L34.6526 21.7215C34.6652 22.8632 34.8355 23.8644 35.1634 24.7249C35.5044 25.6199 35.9754 26.3628 36.5763 26.9537C37.1771 27.5446 37.8754 27.9834 38.6712 28.2701C39.467 28.5569 40.3195 28.7002 41.229 28.7002C42.1384 28.7002 42.991 28.5525 43.7868 28.2571C44.5825 27.9616 45.2808 27.5185 45.8817 26.9276C46.4826 26.3368 46.9535 25.5939 47.2946 24.6989C47.622 23.8397 47.7922 22.8484 47.8053 21.7249L47.8061 21.5838V21.0625L47.8053 20.9276C47.7922 19.8539 47.622 18.9083 47.2946 18.0908C46.9535 17.2393 46.4826 16.5267 45.8817 15.9533C45.2808 15.3798 44.5825 14.9453 43.7868 14.6499C42.991 14.3545 42.1384 14.2067 41.229 14.2067ZM84.7113 14.2067C83.8019 14.2067 82.9493 14.3545 82.1535 14.6499C81.3578 14.9453 80.6595 15.3798 80.0586 15.9533C79.4577 16.5267 78.9867 17.2393 78.6457 18.0908C78.3183 18.9083 78.1481 19.8539 78.135 20.9276L78.1341 21.0625V21.5838L78.1349 21.7215C78.1475 22.8632 78.3178 23.8644 78.6457 24.7249C78.9867 25.6199 79.4577 26.3628 80.0586 26.9537C80.6595 27.5446 81.3578 27.9834 82.1535 28.2701C82.9493 28.5569 83.8019 28.7002 84.7113 28.7002C85.6207 28.7002 86.4733 28.5525 87.2691 28.2571C88.0648 27.9616 88.7632 27.5185 89.364 26.9276C89.9649 26.3368 90.4359 25.5939 90.7769 24.6989C91.1043 23.8397 91.2745 22.8484 91.2876 21.7249L91.2885 21.5838V21.0625L91.2876 20.9276C91.2745 19.8539 91.1043 18.9083 90.7769 18.0908C90.4359 17.2393 89.9649 16.5267 89.364 15.9533C88.7632 15.3798 88.0648 14.9453 87.2691 14.6499C86.4733 14.3545 85.6207 14.2067 84.7113 14.2067ZM109.071 14.2067C108.162 14.2067 107.309 14.3545 106.513 14.6499C105.718 14.9453 105.019 15.3798 104.418 15.9533C103.818 16.5267 103.347 17.2393 103.006 18.0908C102.678 18.9083 102.508 19.8539 102.495 20.9276L102.494 21.0625V21.5838L102.495 21.7215C102.507 22.8632 102.678 23.8644 103.006 24.7249C103.347 25.6199 103.818 26.3628 104.418 26.9537C105.019 27.5446 105.718 27.9834 106.513 28.2701C107.309 28.5569 108.162 28.7002 109.071 28.7002C109.981 28.7002 110.833 28.5525 111.629 28.2571C112.425 27.9616 113.123 27.5185 113.724 26.9276C114.325 26.3368 114.796 25.5939 115.137 24.6989C115.464 23.8397 115.634 22.8484 115.647 21.7249L115.648 21.5838V21.0625L115.647 20.9276C115.634 19.8539 115.464 18.9083 115.137 18.0908C114.796 17.2393 114.325 16.5267 113.724 15.9533C113.123 15.3798 112.425 14.9453 111.629 14.6499C110.833 14.3545 109.981 14.2067 109.071 14.2067ZM97.8413 11.4175H94.0898V14.5456H92.5065V17.8301H94.0898V23.6692L94.0905 23.7973C94.0986 24.645 94.1877 25.3626 94.3578 25.9501C94.5364 26.567 94.8125 27.0667 95.186 27.449C95.5595 27.8313 96.0386 28.105 96.6233 28.2701C97.2079 28.4352 97.9062 28.5178 98.7182 28.5178C99.2704 28.5178 99.717 28.5047 100.058 28.4787C100.342 28.4569 100.615 28.4322 100.877 28.4044L101.032 28.3874V25.1029L100.886 25.1222C100.691 25.1458 100.496 25.1611 100.302 25.1681C100.058 25.1768 99.8144 25.1811 99.5708 25.1811C99.2298 25.1811 98.9496 25.142 98.7304 25.0638C98.5112 24.9856 98.3325 24.8596 98.1945 24.6858C98.0564 24.5121 97.9631 24.2861 97.9143 24.0081C97.87 23.7553 97.8459 23.4595 97.8419 23.1205L97.8413 23.0175V17.8301H100.789V14.5456H97.8413V11.4175ZM32.3376 14.2067C31.9316 14.2067 31.5541 14.2763 31.2049 14.4153C30.8557 14.5543 30.5431 14.7368 30.267 14.9627C29.991 15.1886 29.7514 15.4276 29.5484 15.6796C29.3639 15.9086 29.223 16.1341 29.1257 16.356L29.0978 16.4225V14.5456H25.6387V28.3613H29.3901V20.3065L29.3913 20.2028C29.3994 19.8588 29.4477 19.5328 29.5363 19.2247C29.6337 18.8858 29.7799 18.5948 29.9747 18.3515C30.1696 18.1082 30.4213 17.9127 30.7299 17.7649C31.0384 17.6172 31.412 17.5434 31.8504 17.5434C32.2402 17.5434 32.5812 17.5781 32.8736 17.6476C33.1476 17.7128 33.3289 17.7703 33.4174 17.8202L33.4338 17.8301V14.3631L33.3675 14.3458C33.2547 14.3168 33.1307 14.2878 32.9954 14.2589C32.833 14.2241 32.6137 14.2067 32.3376 14.2067ZM53.5063 10.1142H49.7549V28.3613H53.5063V24.8162L54.8461 23.1479L58.086 28.3613H62.422L57.3796 20.3587L61.9105 14.5456H57.6719L53.5063 19.8634V10.1142ZM67.635 10.1142H63.8836V28.3613H67.635V20.2804L67.6363 20.1723C67.6443 19.8147 67.6926 19.4858 67.7812 19.1856C67.8786 18.8554 68.0329 18.5687 68.244 18.3254C68.4552 18.0821 68.7231 17.8909 69.0479 17.7519C69.3727 17.6129 69.7625 17.5434 70.2172 17.5434C71.0454 17.5434 71.6422 17.7736 72.0076 18.2342C72.3604 18.6788 72.5429 19.33 72.5551 20.1878L72.5557 20.2804V28.3613H76.3072V19.342L76.3066 19.2337C76.2896 17.6525 75.9001 16.4243 75.1379 15.5492C74.3584 14.6542 73.1891 14.2067 71.6301 14.2067C71.0941 14.2067 70.6069 14.2719 70.1685 14.4022C69.73 14.5326 69.3443 14.702 69.0114 14.9106C68.6785 15.1191 68.3983 15.345 68.171 15.5883C67.9663 15.8073 67.8012 16.0192 67.6755 16.2241L67.635 16.2921V10.1142ZM109.071 17.5434C109.51 17.5434 109.899 17.6303 110.24 17.804C110.581 17.9778 110.866 18.2168 111.093 18.5209C111.32 18.825 111.495 19.1943 111.617 19.6288C111.729 20.0298 111.79 20.4679 111.798 20.9429L111.799 21.0625V21.5838L111.799 21.7059C111.79 22.2315 111.73 22.7122 111.617 23.1479C111.495 23.6171 111.32 24.0168 111.093 24.347C110.866 24.6772 110.581 24.9291 110.24 25.1029C109.899 25.2767 109.51 25.3636 109.071 25.3636C108.633 25.3636 108.243 25.281 107.902 25.116C107.561 24.9509 107.277 24.7032 107.049 24.373C106.822 24.0428 106.647 23.6431 106.526 23.1739C106.412 22.7382 106.352 22.2501 106.344 21.7095L106.343 21.5838V21.0625L106.344 20.9429C106.353 20.4679 106.413 20.0298 106.526 19.6288C106.647 19.1943 106.822 18.825 107.049 18.5209C107.277 18.2168 107.561 17.9778 107.902 17.804C108.243 17.6303 108.633 17.5434 109.071 17.5434ZM84.7113 17.5434C85.1498 17.5434 85.5395 17.6303 85.8806 17.804C86.2216 17.9778 86.5058 18.2168 86.7332 18.5209C86.9605 18.825 87.1351 19.1943 87.2569 19.6288C87.3693 20.0298 87.4299 20.4679 87.4385 20.9429L87.4396 21.0625V21.5838L87.4387 21.7059C87.4306 22.2315 87.37 22.7122 87.2569 23.1479C87.1351 23.6171 86.9605 24.0168 86.7332 24.347C86.5058 24.6772 86.2216 24.9291 85.8806 25.1029C85.5395 25.2767 85.1498 25.3636 84.7113 25.3636C84.2728 25.3636 83.8831 25.281 83.542 25.116C83.201 24.9509 82.9168 24.7032 82.6894 24.373C82.4621 24.0428 82.2875 23.6431 82.1657 23.1739C82.0526 22.7382 81.992 22.2501 81.9839 21.7095L81.983 21.5838V21.0625L81.9841 20.9429C81.9927 20.4679 82.0533 20.0298 82.1657 19.6288C82.2875 19.1943 82.4621 18.825 82.6894 18.5209C82.9168 18.2168 83.201 17.9778 83.542 17.804C83.8831 17.6303 84.2728 17.5434 84.7113 17.5434ZM41.229 17.5434C41.6675 17.5434 42.0572 17.6303 42.3983 17.804C42.7393 17.9778 43.0235 18.2168 43.2508 18.5209C43.4782 18.825 43.6528 19.1943 43.7746 19.6288C43.887 20.0298 43.9476 20.4679 43.9562 20.9429L43.9573 21.0625V21.5838L43.9563 21.7059C43.9483 22.2315 43.8877 22.7122 43.7746 23.1479C43.6528 23.6171 43.4782 24.0168 43.2508 24.347C43.0235 24.6772 42.7393 24.9291 42.3983 25.1029C42.0572 25.2767 41.6675 25.3636 41.229 25.3636C40.7905 25.3636 40.4007 25.281 40.0597 25.116C39.7187 24.9509 39.4345 24.7032 39.2071 24.373C38.9798 24.0428 38.8052 23.6431 38.6834 23.1739C38.5703 22.7382 38.5097 22.2501 38.5016 21.7095L38.5007 21.5838V21.0625L38.5018 20.9429C38.5104 20.4679 38.5709 20.0298 38.6834 19.6288C38.8052 19.1943 38.9798 18.825 39.2071 18.5209C39.4345 18.2168 39.7187 17.9778 40.0597 17.804C40.4007 17.6303 40.7905 17.5434 41.229 17.5434Z" fill="white"/>
<path d="M86.0369 58C86.3574 58 86.658 57.9356 86.9385 57.807C87.219 57.6784 87.4595 57.5069 87.6598 57.2925C87.8602 57.0782 88.0205 56.8209 88.1407 56.5208C88.2609 56.2207 88.321 55.8991 88.321 55.5561C88.321 55.2131 88.2609 54.8916 88.1407 54.5915C88.0205 54.2913 87.8602 54.0341 87.6598 53.8197C87.4595 53.6054 87.219 53.4339 86.9385 53.3052C86.658 53.1766 86.3574 53.1123 86.0369 53.1123C85.7163 53.1123 85.4157 53.1766 85.1352 53.3052C84.8547 53.4339 84.6143 53.6054 84.4139 53.8197C84.2135 54.0341 84.0532 54.2913 83.933 54.5915C83.8128 54.8916 83.7527 55.2131 83.7527 55.5561C83.7527 55.8991 83.8128 56.2207 83.933 56.5208C84.0532 56.8209 84.2135 57.0782 84.4139 57.2925C84.6143 57.5069 84.8547 57.6784 85.1352 57.807C85.4157 57.9356 85.7163 58 86.0369 58Z" fill="#F45549"/>
</svg>
