<svg width="24" height="24" viewBox="0 0 24 24" fill="none" xmlns="http://www.w3.org/2000/svg">
<path opacity="0.7" d="M20 11.9696L11.9628 19.5497C10.9782 20.4783 9.64274 21 8.25028 21C6.85782 21 5.52239 20.4783 4.53777 19.5497C3.55315 18.6211 3 17.3616 3 16.0483C3 14.7351 3.55315 13.4756 4.53777 12.547L12.575 4.96687C13.2314 4.34779 14.1217 4 15.05 4C15.9783 4 16.8686 4.34779 17.525 4.96687C18.1814 5.58595 18.5502 6.4256 18.5502 7.30111C18.5502 8.17662 18.1814 9.01628 17.525 9.63535L9.47904 17.2154C9.15083 17.525 8.70569 17.6989 8.24154 17.6989C7.77738 17.6989 7.33224 17.525 7.00403 17.2154C6.67583 16.9059 6.49144 16.4861 6.49144 16.0483C6.49144 15.6106 6.67583 15.1907 7.00403 14.8812L14.429 7.88674" stroke="#191B1D" stroke-width="1.3" stroke-linecap="round" stroke-linejoin="round"/>
</svg>
